# This file uses centimeters as units for non-parametric coordinates.

mtllib MeatBase.mtl
g default
v -0.479797 0.073391 1.277470
v -0.479797 -0.073391 1.277470
v -0.254995 0.073391 1.277470
v -0.254995 -0.073391 1.277470
v 0.232769 0.073391 1.059980
v 0.232769 -0.073391 1.059980
v 0.486458 0.073391 1.024378
v 0.486458 -0.073391 1.024378
v 0.686474 0.073391 0.885949
v 0.686474 -0.073391 0.885949
v 0.710750 0.073391 0.769095
v 0.710750 -0.073391 0.769095
v 0.696184 0.073391 0.637676
v 0.696184 -0.073391 0.637676
v 0.684800 0.073391 0.522395
v 0.684800 -0.073391 0.522395
v 0.680765 0.073391 0.365571
v 0.680765 -0.073391 0.365571
v 0.682783 0.073391 0.249094
v 0.682783 -0.073391 0.249094
v 0.666644 0.073391 0.128581
v 0.666644 -0.073391 0.128581
v 0.713042 0.073391 -0.016139
v 0.713042 -0.073391 -0.016139
v 0.759441 0.073391 -0.126564
v 0.759441 -0.073391 -0.126564
v 0.762840 0.073391 -0.261465
v 0.762840 -0.073391 -0.261465
v 0.774511 0.073391 -0.391364
v 0.774511 -0.073391 -0.391364
v 0.774511 0.073391 -0.497920
v 0.774511 -0.073391 -0.497920
v 0.779513 0.073391 -0.579468
v 0.779513 -0.073391 -0.579468
v 0.712821 0.073391 -0.636006
v 0.712821 -0.073391 -0.636006
v 0.666138 0.073391 -0.829262
v 0.666138 -0.073391 -0.829262
v 0.624456 0.073391 -0.940821
v 0.624456 -0.073391 -0.940821
v 0.511463 0.073391 -1.062779
v 0.511463 -0.073391 -1.062779
v 0.053939 0.073391 -1.268234
v 0.053939 -0.073391 -1.268234
v -0.243142 0.073391 -1.222682
v -0.243142 -0.073391 -1.222682
v -0.374420 0.073391 -0.968799
v -0.374420 -0.073391 -0.968799
v -0.454399 0.073391 -0.888674
v -0.454399 -0.073391 -0.888674
v -0.464719 0.073391 -0.805970
v -0.464719 -0.073391 -0.805970
v -0.560219 0.073391 -0.711873
v -0.560219 -0.073391 -0.711873
v -0.648043 0.073391 -0.616983
v -0.648043 -0.073391 -0.616983
v -0.702754 0.073391 -0.506257
v -0.702754 -0.073391 -0.506257
v -0.744507 0.073391 -0.373933
v -0.744507 -0.073391 -0.373933
v -0.769877 0.073391 -0.253128
v -0.769877 -0.073391 -0.253128
v -0.784119 0.073391 -0.121817
v -0.784119 -0.073391 -0.121817
v -0.790449 0.073391 0.000000
v -0.790449 -0.073391 0.000000
v -0.780954 0.073391 0.140806
v -0.780954 -0.073391 0.140806
v -0.749305 0.073391 0.248381
v -0.749305 -0.073391 0.248381
v -0.738228 0.073391 0.357538
v -0.738228 -0.073391 0.357538
v -0.739811 0.073391 0.498344
v -0.739811 -0.073391 0.498344
v -0.750888 0.073391 0.628074
v -0.750888 -0.073391 0.628074
v -0.760382 0.073391 0.759385
v -0.760382 -0.073391 0.759385
v -0.765130 0.073391 0.882784
v -0.765130 -0.073391 0.882784
v -0.730078 0.073391 1.012514
v -0.730078 -0.073391 1.012514
v -0.674857 0.073391 1.139078
v -0.674857 -0.073391 1.139078
v 0.262081 -0.073391 -1.174766
v 0.262081 0.073391 -1.174766
v -0.410985 0.073391 -1.129144
v -0.410985 -0.073391 -1.129144
vt 0.519426 0.109524
vt 0.519513 0.061910
vt 0.484631 0.061761
vt 0.484545 0.109375
vt 0.378704 0.061308
vt 0.378617 0.108923
vt 0.334389 0.061119
vt 0.334303 0.108733
vt 0.284104 0.060904
vt 0.284017 0.108518
vt 0.264088 0.060819
vt 0.264001 0.108433
vt 0.248073 0.060750
vt 0.247986 0.108364
vt 0.233808 0.060689
vt 0.233721 0.108303
vt 0.212627 0.060599
vt 0.212540 0.108213
vt 0.196116 0.060528
vt 0.196029 0.108142
vt 0.181862 0.060467
vt 0.181775 0.108082
vt 0.154538 0.060351
vt 0.154451 0.107965
vt 0.131983 0.060254
vt 0.131896 0.107868
vt 0.112696 0.060172
vt 0.112609 0.107786
vt 0.092821 0.060087
vt 0.092735 0.107701
vt 0.078004 0.060024
vt 0.077917 0.107638
vt 0.065888 0.059972
vt 0.065801 0.107586
vt 0.068374 0.059982
vt 0.068287 0.107597
vt 0.048743 0.059898
vt 0.048656 0.107513
vt 0.039698 0.059860
vt 0.039611 0.107474
vt 0.040271 0.059862
vt 0.040184 0.107477
vt 0.063393 0.059961
vt 0.063306 0.107575
vt 0.082604 0.107658
vt 0.082691 0.060044
vt 0.135122 0.060268
vt 0.135036 0.107882
vt 0.174086 0.108049
vt 0.174173 0.060434
vt 0.190797 0.060505
vt 0.190710 0.108120
vt 0.214349 0.060606
vt 0.214262 0.108220
vt 0.227451 0.060662
vt 0.227364 0.108276
vt 0.255354 0.060781
vt 0.255267 0.108396
vt 0.282177 0.060896
vt 0.282090 0.108510
vt 0.306064 0.060998
vt 0.305977 0.108612
vt 0.330943 0.061104
vt 0.330856 0.108719
vt 0.351678 0.061193
vt 0.351592 0.108807
vt 0.372149 0.061280
vt 0.372062 0.108895
vt 0.390070 0.061357
vt 0.389984 0.108971
vt 0.408178 0.061434
vt 0.408091 0.109048
vt 0.418226 0.061477
vt 0.418139 0.109091
vt 0.431687 0.061535
vt 0.431600 0.109149
vt 0.451513 0.061619
vt 0.451426 0.109234
vt 0.471271 0.061704
vt 0.471185 0.109318
vt 0.491005 0.061788
vt 0.490918 0.109402
vt 0.508901 0.061865
vt 0.508815 0.109479
vt 0.521503 0.061918
vt 0.521416 0.109533
vt 0.530534 0.061957
vt 0.530447 0.109571
vt 0.203581 0.439859
vt 0.127985 0.439859
vt 0.367606 0.486543
vt 0.062391 0.469565
vt 0.452917 0.494185
vt 0.043821 0.496731
vt 0.520177 0.523898
vt 0.032033 0.524577
vt 0.528341 0.548980
vt 0.033630 0.551065
vt 0.523443 0.577189
vt 0.036823 0.579250
vt 0.620934 0.092410
vt 0.609857 0.061404
vt 0.813765 0.052582
vt 0.889316 0.074238
vt 0.660706 0.043317
vt 0.750708 0.034508
vt 0.596705 0.107905
vt 0.923548 0.097821
vt 0.593579 0.123897
vt 0.936175 0.119393
vt 0.564646 0.142094
vt 0.950319 0.156765
vt 0.538039 0.160443
vt 0.970521 0.167697
vt 0.521465 0.181854
vt 0.969007 0.183466
vt 0.508816 0.207443
vt 0.969007 0.204072
vt 0.501131 0.230803
vt 0.965471 0.229191
vt 0.496816 0.256196
vt 0.964442 0.255278
vt 0.494897 0.279752
vt 0.950385 0.276631
vt 0.497774 0.306980
vt 0.936327 0.304616
vt 0.507363 0.327782
vt 0.941217 0.327919
vt 0.510718 0.348890
vt 0.940606 0.350444
vt 0.510238 0.376119
vt 0.941828 0.380769
vt 0.506882 0.401205
vt 0.945278 0.403061
vt 0.504006 0.426598
vt 0.949690 0.428475
vt 0.502568 0.450459
vt 0.942336 0.451071
vt 0.513187 0.475545
vt 0.881741 0.477840
vt 0.529917 0.500020
vt 0.804886 0.484725
vt 0.589010 0.526781
vt 0.657115 0.526781
vt 0.151125 0.956430
vt 0.163421 0.922012
vt 0.461325 0.942185
vt 0.377463 0.966222
vt 0.136526 0.904814
vt 0.499322 0.916007
vt 0.207568 0.976507
vt 0.307469 0.986285
vt 0.133056 0.887062
vt 0.513339 0.892061
vt 0.100940 0.866865
vt 0.529038 0.850580
vt 0.071407 0.846497
vt 0.551464 0.838444
vt 0.053009 0.822729
vt 0.549782 0.820941
vt 0.038969 0.794327
vt 0.549782 0.798069
vt 0.030437 0.768397
vt 0.545857 0.770186
vt 0.025648 0.740211
vt 0.544715 0.741230
vt 0.023519 0.714064
vt 0.529112 0.717528
vt 0.026712 0.683840
vt 0.513509 0.686464
vt 0.037356 0.660750
vt 0.518936 0.660597
vt 0.041080 0.637319
vt 0.518258 0.635595
vt 0.040548 0.607096
vt 0.519614 0.601934
vn 0.000000 0.000000 1.000000
vn 0.000000 0.000000 1.000000
vn 0.000000 0.000000 1.000000
vn 0.000000 0.000000 1.000000
vn 0.407241 0.000000 0.913321
vn 0.407241 0.000000 0.913321
vn 0.323044 0.000000 0.946384
vn 0.323044 0.000000 0.946384
vn 0.358135 0.000000 0.933670
vn 0.358135 0.000000 0.933670
vn 0.751233 0.000000 0.660037
vn 0.751233 0.000000 0.660037
vn 0.999236 0.000000 0.039082
vn 0.999236 0.000000 0.039082
vn 0.994513 0.000000 -0.104613
vn 0.994513 0.000000 -0.104613
vn 0.998398 0.000000 -0.056575
vn 0.998398 0.000000 -0.056575
vn 0.999973 0.000000 -0.007381
vn 0.999973 0.000000 -0.007381
vn 0.998230 0.000000 -0.059480
vn 0.998230 0.000000 -0.059480
vn 0.993555 0.000000 0.113352
vn 0.993555 0.000000 0.113352
vn 0.939774 0.000000 0.341796
vn 0.939774 0.000000 0.341796
vn 0.980014 0.000000 0.198927
vn 0.980014 0.000000 0.198927
vn 0.998385 0.000000 0.056819
vn 0.998385 0.000000 0.056819
vn 0.998784 0.000000 0.049298
vn 0.998784 0.000000 0.049298
vn 0.999647 0.000000 0.026581
vn 0.999647 0.000000 0.026581
vn 0.913030 0.000000 -0.407893
vn 0.913030 0.000000 -0.407893
vn 0.910597 0.000000 -0.413296
vn 0.910597 0.000000 -0.413296
vn 0.960455 0.000000 -0.278436
vn 0.960455 0.000000 -0.278436
vn 0.833700 0.000000 -0.552218
vn 0.833700 0.000000 -0.552218
vn 0.542382 0.000000 -0.840132
vn 0.542382 0.000000 -0.840132
vn 0.409652 0.000000 -0.912242
vn 0.409652 0.000000 -0.912242
vn -0.151563 0.000000 -0.988448
vn -0.151563 0.000000 -0.988448
vn -0.151563 0.000000 -0.988448
vn -0.151563 0.000000 -0.988448
vn -0.888276 0.000000 -0.459310
vn -0.888276 0.000000 -0.459310
vn -0.984091 0.000000 -0.177666
vn -0.984091 0.000000 -0.177666
vn -0.874525 0.000000 -0.484980
vn -0.874525 0.000000 -0.484980
vn -0.858052 0.000000 -0.513563
vn -0.858052 0.000000 -0.513563
vn -0.717777 0.000000 -0.696273
vn -0.717777 0.000000 -0.696273
vn -0.821845 0.000000 -0.569711
vn -0.821845 0.000000 -0.569711
vn -0.929471 0.000000 -0.368896
vn -0.929471 0.000000 -0.368896
vn -0.966593 0.000000 -0.256316
vn -0.966593 0.000000 -0.256316
vn -0.987881 0.000000 -0.155215
vn -0.987881 0.000000 -0.155215
vn -0.996714 0.000000 -0.081004
vn -0.996714 0.000000 -0.081004
vn -0.999927 0.000000 0.012050
vn -0.999927 0.000000 0.012050
vn -0.986556 0.000000 0.163422
vn -0.986556 0.000000 0.163422
vn -0.981117 0.000000 0.193417
vn -0.981117 0.000000 0.193417
vn -0.999279 0.000000 0.037957
vn -0.999279 0.000000 0.037957
vn -0.998907 0.000000 -0.046744
vn -0.998907 0.000000 -0.046744
vn -0.996909 0.000000 -0.078564
vn -0.996909 0.000000 -0.078564
vn -0.998440 0.000000 -0.055828
vn -0.998440 0.000000 -0.055828
vn -0.992910 0.000000 0.118871
vn -0.992910 0.000000 0.118871
vn -0.943202 0.000000 0.332219
vn -0.943202 0.000000 0.332219
vn -0.726952 0.000000 0.686689
vn -0.726952 0.000000 0.686689
vn -0.578642 0.000000 0.815582
vn -0.578642 0.000000 0.815582
vn 0.000000 -1.000000 0.000000
vn 0.000000 -1.000000 -0.000000
vn 0.000000 -1.000000 -0.000000
vn 0.000000 -1.000000 0.000000
vn 0.000000 -1.000000 -0.000000
vn 0.000000 -1.000000 -0.000000
vn 0.000000 -1.000000 0.000000
vn 0.000000 -1.000000 0.000000
vn 0.000000 -1.000000 -0.000000
vn 0.000000 -1.000000 -0.000000
vn 0.000000 -1.000000 -0.000000
vn 0.000000 -1.000000 -0.000000
vn 0.000000 -1.000000 -0.000000
vn 0.000000 -1.000000 -0.000000
vn 0.000000 -1.000000 -0.000000
vn 0.000000 -1.000000 -0.000000
vn 0.000000 -1.000000 0.000000
vn 0.000000 -1.000000 0.000000
vn 0.000000 -1.000000 0.000000
vn 0.000000 -1.000000 0.000000
vn 0.000000 -1.000000 -0.000000
vn 0.000000 -1.000000 -0.000000
vn 0.000000 -1.000000 -0.000000
vn 0.000000 -1.000000 -0.000000
vn 0.000000 -1.000000 0.000000
vn 0.000000 -1.000000 0.000000
vn 0.000000 -1.000000 -0.000000
vn 0.000000 -1.000000 -0.000000
vn 0.000000 -1.000000 0.000000
vn 0.000000 -1.000000 0.000000
vn 0.000000 -1.000000 0.000000
vn 0.000000 -1.000000 0.000000
vn 0.000000 -1.000000 0.000000
vn 0.000000 -1.000000 0.000000
vn 0.000000 -1.000000 0.000000
vn 0.000000 -1.000000 0.000000
vn 0.000000 -1.000000 0.000000
vn 0.000000 -1.000000 0.000000
vn 0.000000 -1.000000 -0.000000
vn 0.000000 -1.000000 -0.000000
vn 0.000000 -1.000000 -0.000000
vn 0.000000 -1.000000 -0.000000
vn 0.000000 1.000000 -0.000000
vn 0.000000 1.000000 0.000000
vn 0.000000 1.000000 0.000000
vn 0.000000 1.000000 -0.000000
vn 0.000000 1.000000 -0.000000
vn 0.000000 1.000000 -0.000000
vn 0.000000 1.000000 0.000000
vn 0.000000 1.000000 0.000000
vn 0.000000 1.000000 -0.000000
vn 0.000000 1.000000 -0.000000
vn 0.000000 1.000000 -0.000000
vn 0.000000 1.000000 -0.000000
vn 0.000000 1.000000 0.000000
vn 0.000000 1.000000 0.000000
vn 0.000000 1.000000 0.000000
vn 0.000000 1.000000 0.000000
vn 0.000000 1.000000 0.000000
vn 0.000000 1.000000 0.000000
vn 0.000000 1.000000 0.000000
vn 0.000000 1.000000 0.000000
vn 0.000000 1.000000 -0.000000
vn 0.000000 1.000000 -0.000000
vn 0.000000 1.000000 0.000000
vn 0.000000 1.000000 0.000000
vn 0.000000 1.000000 0.000000
vn 0.000000 1.000000 0.000000
vn 0.000000 1.000000 -0.000000
vn 0.000000 1.000000 -0.000000
vn 0.000000 1.000000 0.000000
vn 0.000000 1.000000 0.000000
vn 0.000000 1.000000 0.000000
vn 0.000000 1.000000 0.000000
vn 0.000000 1.000000 -0.000000
vn 0.000000 1.000000 0.000000
vn 0.000000 1.000000 -0.000000
vn 0.000000 1.000000 -0.000000
vn 0.000000 1.000000 0.000000
vn 0.000000 1.000000 0.000000
vn 0.000000 1.000000 0.000000
vn 0.000000 1.000000 0.000000
vn 0.000000 1.000000 0.000000
vn 0.000000 1.000000 0.000000
vn 0.409652 0.000000 -0.912242
vn 0.409652 0.000000 -0.912242
vn 0.000000 1.000000 -0.000000
vn 0.000000 1.000000 -0.000000
vn -0.486800 0.000000 -0.873513
vn -0.486800 0.000000 -0.873513
vn 0.000000 -1.000000 -0.000000
vn 0.000000 -1.000000 -0.000000
s off
g Meat
usemtl lambert2SG
f 1/1/1 2/2/2 4/3/3 3/4/4
s 1
f 3/4/5 4/3/6 6/5/7 5/6/8
f 5/6/8 6/5/7 8/7/9 7/8/10
f 7/8/10 8/7/9 10/9/11 9/10/12
f 9/10/12 10/9/11 12/11/13 11/12/14
f 11/12/14 12/11/13 14/13/15 13/14/16
f 13/14/16 14/13/15 16/15/17 15/16/18
f 15/16/18 16/15/17 18/17/19 17/18/20
f 17/18/20 18/17/19 20/19/21 19/20/22
f 19/20/22 20/19/21 22/21/23 21/22/24
f 21/22/24 22/21/23 24/23/25 23/24/26
f 23/24/26 24/23/25 26/25/27 25/26/28
f 25/26/28 26/25/27 28/27/29 27/28/30
f 27/28/30 28/27/29 30/29/31 29/30/32
f 29/30/32 30/29/31 32/31/33 31/32/34
f 31/32/34 32/31/33 34/33/35 33/34/36
f 33/34/36 34/33/35 36/35/37 35/36/38
f 35/36/38 36/35/37 38/37/39 37/38/40
f 37/38/40 38/37/39 40/39/41 39/40/42
f 39/40/42 40/39/41 42/41/43 41/42/44
f 41/42/44 42/41/43 85/43/45 86/44/46
s off
f 43/45/47 44/46/48 46/47/49 45/48/50
s 2
f 87/49/51 88/50/52 48/51/53 47/52/54
f 47/52/54 48/51/53 50/53/55 49/54/56
f 49/54/56 50/53/55 52/55/57 51/56/58
f 51/56/58 52/55/57 54/57/59 53/58/60
f 53/58/60 54/57/59 56/59/61 55/60/62
f 55/60/62 56/59/61 58/61/63 57/62/64
f 57/62/64 58/61/63 60/63/65 59/64/66
f 59/64/66 60/63/65 62/65/67 61/66/68
f 61/66/68 62/65/67 64/67/69 63/68/70
f 63/68/70 64/67/69 66/69/71 65/70/72
f 65/70/72 66/69/71 68/71/73 67/72/74
f 67/72/74 68/71/73 70/73/75 69/74/76
f 69/74/76 70/73/75 72/75/77 71/76/78
f 71/76/78 72/75/77 74/77/79 73/78/80
f 73/78/80 74/77/79 76/79/81 75/80/82
f 75/80/82 76/79/81 78/81/83 77/82/84
f 77/82/84 78/81/83 80/83/85 79/84/86
f 79/84/86 80/83/85 82/85/87 81/86/88
f 81/86/88 82/85/87 84/87/89 83/88/90
f 83/88/90 84/87/89 2/2/91 1/1/92
s 3
f 48/101/93 88/102/94 85/103/95 42/104/96
f 50/107/97 48/101/93 42/104/96 40/108/98
f 52/109/99 50/107/97 40/108/98 38/110/100
f 54/111/101 52/109/99 38/110/100 36/112/102
f 56/113/103 54/111/101 36/112/102 34/114/104
f 58/115/105 56/113/103 34/114/104 32/116/106
f 60/117/107 58/115/105 32/116/106 30/118/108
f 62/119/109 60/117/107 30/118/108 28/120/110
f 64/121/111 62/119/109 28/120/110 26/122/112
f 66/123/113 64/121/111 26/122/112 24/124/114
f 68/125/115 66/123/113 24/124/114 22/126/116
f 70/127/117 68/125/115 22/126/116 20/128/118
f 72/129/119 70/127/117 20/128/118 18/130/120
f 74/131/121 72/129/119 18/130/120 16/132/122
f 76/133/123 74/131/121 16/132/122 14/134/124
f 78/135/125 76/133/123 14/134/124 12/136/126
f 80/137/127 78/135/125 12/136/126 10/138/128
f 82/139/129 80/137/127 10/138/128 8/140/130
f 84/141/131 82/139/129 8/140/130 6/142/132
f 2/143/133 84/141/131 6/142/132 4/144/134
s 4
f 87/145/135 47/146/136 41/147/137 86/148/138
f 47/146/136 49/149/139 39/150/140 41/147/137
f 49/149/139 51/153/141 37/154/142 39/150/140
f 51/153/141 53/155/143 35/156/144 37/154/142
f 53/155/143 55/157/145 33/158/146 35/156/144
f 55/157/145 57/159/147 31/160/148 33/158/146
f 57/159/147 59/161/149 29/162/150 31/160/148
f 59/161/149 61/163/151 27/164/152 29/162/150
f 61/163/151 63/165/153 25/166/154 27/164/152
f 63/165/153 65/167/155 23/168/156 25/166/154
f 65/167/155 67/169/157 21/170/158 23/168/156
f 67/169/157 69/171/159 19/172/160 21/170/158
f 69/171/159 71/173/161 17/174/162 19/172/160
f 71/173/161 73/175/163 15/176/164 17/174/162
f 73/175/163 75/100/165 13/99/166 15/176/164
f 75/100/165 77/98/167 11/97/168 13/99/166
f 77/98/167 79/96/169 9/95/170 11/97/168
f 79/96/169 81/94/171 7/93/172 9/95/170
f 81/94/171 83/92/173 5/91/174 7/93/172
f 83/92/173 1/90/175 3/89/176 5/91/174
s 1
f 86/44/46 85/43/45 44/46/177 43/45/178
s 4
f 45/151/179 87/145/135 86/148/138 43/152/180
s 2
f 45/48/181 46/47/182 88/50/52 87/49/51
s 3
f 85/103/95 88/102/94 46/105/183 44/106/184
