# This file uses centimeters as units for non-parametric coordinates.

mtllib SegaBase.mtl
g default
v -1.290469 -1.651894 -10.135225
v -0.290469 -1.651894 -10.135225
v -1.290469 2.656038 -2.737702
v -0.290469 2.656038 -2.737702
v -1.290469 3.730077 -2.772952
v -0.290469 3.730077 -2.772952
v -1.290469 -1.616324 -12.825753
v -0.290469 -1.616324 -12.825753
v -0.290469 2.050384 -9.708151
v -1.290469 2.050384 -9.708151
v -1.290469 3.606378 -10.629550
v -0.290469 3.606378 -10.629550
v -0.290469 -0.118770 -10.596260
v -1.290469 -0.118770 -10.596260
v -1.290469 -0.106830 -13.182092
v -0.290469 -0.106830 -13.182092
v -0.290469 1.162274 -10.247475
v -1.290469 1.162274 -10.247475
v -1.290469 2.053164 -12.416080
v -0.290469 2.053164 -12.416080
v -0.290469 -1.011681 -10.219115
v -1.290469 -1.011681 -10.219115
v -1.290469 -0.965574 -13.377884
v -0.290469 -0.965574 -13.377884
v -0.290469 -1.311223 -10.127629
v -1.290469 -1.311223 -10.127629
v -1.290469 -1.244978 -13.292773
v -0.290469 -1.244978 -13.292773
v -0.290469 -0.582992 -10.542949
v -1.290469 -0.582992 -10.542949
v -1.290469 -0.553288 -13.284273
v -0.290469 -0.553288 -13.284273
v -0.290469 1.618254 -10.067644
v -1.290469 1.618254 -10.067644
v -1.290469 2.747580 -11.951775
v -0.290469 2.747580 -11.951775
v -0.290469 -1.466686 -10.123061
v -1.290469 -1.466686 -10.123061
v -1.290469 -1.475536 -13.091985
v -0.290469 -1.475536 -13.091985
v -0.290469 1.830101 -9.891406
v -1.290469 1.830101 -9.891406
v -1.290469 3.233815 -11.316611
v -0.290469 3.233815 -11.316611
v -0.290469 3.936807 -9.135808
v -1.290469 3.936807 -9.135808
v -1.290469 2.246860 -9.169773
v -0.290469 2.246860 -9.169773
v -0.290469 3.898063 -8.154349
v -1.290469 3.898063 -8.154349
v -1.290469 1.722072 -8.227404
v -0.290469 1.722072 -8.227404
v -0.290469 3.913583 -8.547508
v -1.290469 3.913583 -8.547508
v -1.290469 2.269407 -8.638616
v -0.290469 2.269407 -8.638616
v -0.290469 3.905156 -8.334033
v -1.290469 3.905156 -8.334033
v -1.290469 2.129537 -8.302968
v -0.290469 2.129537 -8.302968
v -0.290469 3.868657 -7.912067
v -1.290469 3.868657 -7.912067
v -1.290469 1.218125 -7.971578
v -0.290469 1.218125 -7.971578
v -0.290469 3.861133 -6.616084
v -1.290469 3.861133 -6.616084
v -1.290469 1.211206 -6.630518
v -0.290469 1.211206 -6.630518
v -0.290469 3.840354 -6.195195
v -1.290469 3.840354 -6.195195
v -1.290469 1.440291 -6.201751
v -0.290469 1.440291 -6.201751
v -0.290469 3.814207 -5.673695
v -1.290469 3.814207 -5.673695
v -1.290469 1.728551 -5.670339
v -0.290469 1.728551 -5.670339
v -0.290469 3.752950 -4.702479
v -1.290469 3.752950 -4.702479
v -1.290469 1.778766 -4.690800
v -0.290469 1.778766 -4.690800
v -0.290469 3.806049 -3.702139
v -1.290469 3.806049 -3.702139
v -1.290469 1.817689 -3.678239
v -0.290469 1.817689 -3.678239
vt 0.375000 0.000000
vt 0.625000 0.000000
vt 0.375000 0.250000
vt 0.625000 0.250000
vt 0.375000 0.500000
vt 0.625000 0.500000
vt 0.375000 0.750000
vt 0.625000 0.750000
vt 0.375000 1.000000
vt 0.625000 1.000000
vt 0.875000 0.000000
vt 0.875000 0.250000
vt 0.125000 0.000000
vt 0.125000 0.250000
vt 0.625000 0.102764
vt 0.375000 0.102764
vt 0.125000 0.102764
vt 0.375000 0.647236
vt 0.625000 0.647236
vt 0.875000 0.102764
vt 0.625000 0.028233
vt 0.375000 0.028233
vt 0.125000 0.028233
vt 0.375000 0.721767
vt 0.625000 0.721767
vt 0.875000 0.028233
vt 0.625000 0.066673
vt 0.375000 0.066673
vt 0.125000 0.066673
vt 0.375000 0.683327
vt 0.625000 0.683327
vt 0.875000 0.066673
vt 0.625000 0.011696
vt 0.375000 0.011696
vt 0.125000 0.011696
vt 0.375000 0.738304
vt 0.625000 0.738304
vt 0.875000 0.011696
vt 0.625000 0.006149
vt 0.375000 0.006149
vt 0.125000 0.006149
vt 0.375000 0.743851
vt 0.625000 0.743851
vt 0.875000 0.006149
vt 0.625000 0.019636
vt 0.375000 0.019636
vt 0.125000 0.019636
vt 0.375000 0.730364
vt 0.625000 0.730364
vt 0.875000 0.019636
vt 0.625000 0.083233
vt 0.375000 0.083233
vt 0.125000 0.083233
vt 0.375000 0.666767
vt 0.625000 0.666767
vt 0.875000 0.083233
vt 0.625000 0.003269
vt 0.375000 0.003269
vt 0.125000 0.003269
vt 0.375000 0.746731
vt 0.625000 0.746731
vt 0.875000 0.003269
vt 0.625000 0.092808
vt 0.375000 0.092808
vt 0.125000 0.092808
vt 0.375000 0.657192
vt 0.625000 0.657192
vt 0.875000 0.092808
vt 0.625000 0.617434
vt 0.875000 0.132566
vt 0.125000 0.132566
vt 0.375000 0.617434
vt 0.375000 0.132566
vt 0.625000 0.132566
vt 0.625000 0.593766
vt 0.875000 0.156234
vt 0.125000 0.156234
vt 0.375000 0.593766
vt 0.375000 0.156234
vt 0.625000 0.156234
vt 0.625000 0.603247
vt 0.875000 0.146753
vt 0.125000 0.146753
vt 0.375000 0.603247
vt 0.375000 0.146753
vt 0.625000 0.146753
vt 0.625000 0.598099
vt 0.875000 0.151901
vt 0.125000 0.151901
vt 0.375000 0.598099
vt 0.375000 0.151901
vt 0.625000 0.151901
vt 0.625000 0.573981
vt 0.875000 0.176019
vt 0.125000 0.176019
vt 0.375000 0.573981
vt 0.375000 0.176019
vt 0.625000 0.176019
vt 0.625000 0.543566
vt 0.875000 0.206434
vt 0.125000 0.206434
vt 0.375000 0.543566
vt 0.375000 0.206434
vt 0.625000 0.206434
vt 0.625000 0.536658
vt 0.875000 0.213342
vt 0.125000 0.213342
vt 0.375000 0.536658
vt 0.375000 0.213342
vt 0.625000 0.213342
vt 0.625000 0.527966
vt 0.875000 0.222034
vt 0.125000 0.222034
vt 0.375000 0.527966
vt 0.375000 0.222034
vt 0.625000 0.222034
vt 0.625000 0.520669
vt 0.875000 0.229331
vt 0.125000 0.229331
vt 0.375000 0.520669
vt 0.375000 0.229331
vt 0.625000 0.229331
vt 0.625000 0.509953
vt 0.875000 0.240047
vt 0.125000 0.240047
vt 0.375000 0.509953
vt 0.375000 0.240047
vt 0.625000 0.240047
vn 0.000000 -0.065538 0.997850
vn 0.000000 -0.065538 0.997850
vn 0.000000 -0.022291 0.999752
vn 0.000000 -0.022291 0.999752
vn 0.000000 0.032802 0.999462
vn 0.000000 0.032802 0.999462
vn 0.000000 0.032802 0.999462
vn 0.000000 0.032802 0.999462
vn 0.000000 -0.782721 -0.622373
vn 0.000000 -0.782721 -0.622373
vn 0.000000 -0.884005 -0.467477
vn 0.000000 -0.884005 -0.467477
vn 0.000000 -0.999913 -0.013219
vn 0.000000 -0.999913 -0.013219
vn 0.000000 -0.999913 -0.013219
vn 0.000000 -0.999913 -0.013219
vn 1.000000 0.000000 0.000000
vn 1.000000 0.000000 0.000000
vn 1.000000 -0.000000 0.000000
vn 1.000000 -0.000000 0.000000
vn -1.000000 0.000000 0.000000
vn -1.000000 0.000000 0.000000
vn -1.000000 -0.000000 0.000000
vn -1.000000 -0.000000 0.000000
vn 0.000000 -0.912205 0.409734
vn 0.000000 -0.912205 0.409734
vn 0.000000 -0.746496 0.665390
vn 0.000000 -0.746496 0.665390
vn -1.000000 0.000000 0.000000
vn -1.000000 0.000000 0.000000
vn -1.000000 0.000000 0.000000
vn -1.000000 0.000000 0.000000
vn 0.000000 0.996674 0.081490
vn 0.000000 0.996674 0.081490
vn 0.000000 0.999930 0.011853
vn 0.000000 0.999930 0.011853
vn 1.000000 0.000000 0.000000
vn 1.000000 0.000000 0.000000
vn 1.000000 0.000000 0.000000
vn 1.000000 0.000000 0.000000
vn 0.000000 -0.166925 0.985970
vn 0.000000 -0.166925 0.985970
vn 0.000000 -0.291139 0.956681
vn 0.000000 -0.291139 0.956681
vn -1.000000 0.000000 0.000000
vn -1.000000 0.000000 0.000000
vn -1.000000 0.000000 0.000000
vn -1.000000 0.000000 0.000000
vn 0.000000 0.395821 -0.918328
vn 0.000000 0.395821 -0.918328
vn 0.000000 0.316023 -0.948752
vn 0.000000 0.316023 -0.948752
vn 1.000000 -0.000000 0.000000
vn 1.000000 0.000000 0.000000
vn 1.000000 -0.000000 0.000000
vn 1.000000 -0.000000 0.000000
vn 0.000000 -0.470480 0.882411
vn 0.000000 -0.470480 0.882411
vn -1.000000 -0.000000 0.000000
vn -1.000000 -0.000000 0.000000
vn 0.000000 0.681499 -0.731819
vn 0.000000 0.681499 -0.731819
vn 1.000000 -0.000000 0.000000
vn 1.000000 -0.000000 0.000000
vn 0.000000 0.495408 0.868660
vn 0.000000 0.495408 0.868660
vn 0.000000 0.389093 0.921199
vn 0.000000 0.389093 0.921199
vn -1.000000 0.000000 0.000000
vn -1.000000 0.000000 0.000000
vn -1.000000 -0.000000 0.000000
vn -1.000000 -0.000000 0.000000
vn 0.000000 0.222294 -0.974980
vn 0.000000 0.222294 -0.974980
vn 0.000000 0.012288 -0.999924
vn 0.000000 0.012288 -0.999924
vn 1.000000 0.000000 0.000000
vn 1.000000 0.000000 0.000000
vn 1.000000 0.000000 0.000000
vn 1.000000 0.000000 0.000000
vn 0.000000 0.206554 0.978435
vn 0.000000 0.206554 0.978435
vn -1.000000 0.000000 0.000000
vn -1.000000 -0.000000 0.000000
vn 0.000000 -0.489020 -0.872273
vn 0.000000 -0.489020 -0.872273
vn 1.000000 0.000000 0.000000
vn 1.000000 0.000000 0.000000
vn 0.000000 -0.639539 0.768759
vn 0.000000 -0.639539 0.768759
vn -1.000000 -0.000000 0.000000
vn -1.000000 -0.000000 0.000000
vn 0.000000 0.838632 -0.544699
vn 0.000000 0.838632 -0.544699
vn 1.000000 -0.000000 0.000000
vn 1.000000 -0.000000 0.000000
vn 0.000000 -0.865961 0.500111
vn 0.000000 -0.865961 0.500111
vn -1.000000 0.000000 0.000000
vn -1.000000 0.000000 0.000000
vn 0.000000 0.951771 -0.306808
vn 0.000000 0.951771 -0.306808
vn 1.000000 0.000000 0.000000
vn 1.000000 0.000000 0.000000
vn 0.000000 0.989289 -0.145970
vn 0.000000 0.989289 -0.145970
vn -1.000000 0.000000 0.000000
vn -1.000000 0.000000 0.000000
vn 0.000000 -0.979669 0.200620
vn 0.000000 -0.979669 0.200620
vn 1.000000 0.000000 0.000000
vn 1.000000 0.000000 0.000000
vn 0.000000 0.996280 0.086177
vn 0.000000 0.996280 0.086177
vn 0.000000 0.999222 0.039445
vn 0.000000 0.999222 0.039445
vn -1.000000 0.000000 0.000000
vn -1.000000 0.000000 0.000000
vn -1.000000 0.000000 0.000000
vn -1.000000 0.000000 0.000000
vn 0.000000 -0.600664 -0.799502
vn 0.000000 -0.600664 -0.799502
vn 0.000000 -0.341713 -0.939804
vn 0.000000 -0.341713 -0.939804
vn 1.000000 0.000000 0.000000
vn 1.000000 0.000000 0.000000
vn 1.000000 0.000000 0.000000
vn 1.000000 0.000000 0.000000
vn 0.000000 0.999222 0.039445
vn 0.000000 0.999222 0.039445
vn -1.000000 0.000000 0.000000
vn -1.000000 0.000000 0.000000
vn 0.000000 -0.990964 -0.134128
vn 0.000000 -0.990964 -0.134128
vn 1.000000 0.000000 0.000000
vn 1.000000 0.000000 0.000000
vn 0.000000 0.999712 0.024001
vn 0.000000 0.999712 0.024001
vn -1.000000 0.000000 0.000000
vn -1.000000 0.000000 0.000000
vn 0.000000 -0.952448 -0.304702
vn 0.000000 -0.952448 -0.304702
vn 1.000000 0.000000 0.000000
vn 1.000000 0.000000 0.000000
vn 0.000000 0.999864 0.016483
vn 0.000000 0.999864 0.016483
vn -1.000000 0.000000 0.000000
vn -1.000000 0.000000 0.000000
vn 0.000000 -0.992213 0.124552
vn 0.000000 -0.992213 0.124552
vn 1.000000 0.000000 0.000000
vn 1.000000 0.000000 0.000000
vn 0.000000 0.998762 0.049734
vn 0.000000 0.998762 0.049734
vn -1.000000 0.000000 0.000000
vn -1.000000 0.000000 0.000000
vn 0.000000 -0.880346 0.474331
vn 0.000000 -0.880346 0.474331
vn 1.000000 0.000000 0.000000
vn 1.000000 0.000000 0.000000
vn 0.000000 0.998290 0.058454
vn 0.000000 0.998290 0.058454
vn -1.000000 0.000000 0.000000
vn -1.000000 0.000000 0.000000
vn 0.000000 -0.975815 0.218597
vn 0.000000 -0.975815 0.218597
vn 1.000000 0.000000 0.000000
vn 1.000000 0.000000 0.000000
vn 0.000000 0.999991 0.004138
vn 0.000000 0.999991 0.004138
vn -1.000000 0.000000 0.000000
vn -1.000000 0.000000 0.000000
vn 0.000000 -0.999000 0.044701
vn 0.000000 -0.999000 0.044701
vn 1.000000 0.000000 0.000000
vn 1.000000 0.000000 0.000000
s 1
g pCube2
usemtl initialShadingGroup
f 1/1/1 2/2/2 37/57/3 38/58/4
s off
f 3/3/5 4/4/6 6/6/7 5/5/8
s 2
f 39/60/9 40/61/10 8/8/11 7/7/12
s off
f 7/7/13 8/8/14 2/10/15 1/9/16
s 3
f 2/2/17 8/11/18 40/62/19 37/57/20
s 4
f 7/13/21 1/1/22 38/58/23 39/59/24
s 1
f 83/127/25 84/128/26 4/4/27 3/3/28
s 4
f 82/125/29 83/127/30 3/3/31 5/14/32
s 2
f 5/5/33 6/6/34 81/123/35 82/126/36
s 3
f 84/128/37 81/124/38 6/12/39 4/4/40
s 1
f 14/22/41 13/21/42 17/27/43 18/28/44
s 4
f 15/23/45 14/22/46 18/28/47 19/29/48
s 2
f 19/30/49 20/31/50 16/25/51 15/24/52
s 3
f 13/21/53 16/26/54 20/32/55 17/27/56
s 1
f 18/28/44 17/27/43 33/51/57 34/52/58
s 4
f 19/29/48 18/28/47 34/52/59 35/53/60
s 2
f 35/54/61 36/55/62 20/31/50 19/30/49
s 3
f 17/27/56 20/32/55 36/56/63 33/51/64
s 1
f 22/34/65 21/33/66 29/45/67 30/46/68
s 4
f 23/35/69 22/34/70 30/46/71 31/47/72
s 2
f 31/48/73 32/49/74 24/37/75 23/36/76
s 3
f 21/33/77 24/38/78 32/50/79 29/45/80
s 1
f 26/40/81 25/39/82 21/33/66 22/34/65
s 4
f 27/41/83 26/40/84 22/34/70 23/35/69
s 2
f 23/36/76 24/37/75 28/43/85 27/42/86
s 3
f 25/39/87 28/44/88 24/38/78 21/33/77
s 1
f 30/46/68 29/45/67 13/21/42 14/22/41
s 4
f 31/47/72 30/46/71 14/22/46 15/23/45
s 2
f 15/24/52 16/25/51 32/49/74 31/48/73
s 3
f 29/45/80 32/50/79 16/26/54 13/21/53
s 1
f 34/52/58 33/51/57 41/63/89 42/64/90
s 4
f 35/53/60 34/52/59 42/64/91 43/65/92
s 2
f 43/66/93 44/67/94 36/55/62 35/54/61
s 3
f 33/51/64 36/56/63 44/68/95 41/63/96
s 1
f 38/58/4 37/57/3 25/39/82 26/40/81
s 4
f 39/59/24 38/58/23 26/40/84 27/41/83
s 2
f 27/42/86 28/43/85 40/61/10 39/60/9
s 3
f 37/57/20 40/62/19 28/44/88 25/39/87
s 1
f 42/64/90 41/63/89 9/15/97 10/16/98
s 4
f 43/65/92 42/64/91 10/16/99 11/17/100
s 2
f 11/18/101 12/19/102 44/67/94 43/66/93
s 3
f 41/63/96 44/68/95 12/20/103 9/15/104
s 2
f 46/72/105 45/69/106 12/19/102 11/18/101
s 4
f 11/17/100 10/16/99 47/73/107 46/71/108
s 1
f 10/16/98 9/15/97 48/74/109 47/73/110
s 3
f 9/15/104 12/20/103 45/70/111 48/74/112
s 2
f 50/78/113 49/75/114 57/87/115 58/90/116
s 4
f 58/89/117 59/91/118 51/79/119 50/77/120
s 1
f 59/91/121 60/92/122 52/80/123 51/79/124
s 3
f 60/92/125 57/88/126 49/76/127 52/80/128
s 2
f 54/84/129 53/81/130 45/69/106 46/72/105
s 4
f 46/71/108 47/73/107 55/85/131 54/83/132
s 1
f 47/73/110 48/74/109 56/86/133 55/85/134
s 3
f 48/74/112 45/70/111 53/82/135 56/86/136
s 2
f 58/90/116 57/87/115 53/81/130 54/84/129
s 4
f 54/83/132 55/85/131 59/91/118 58/89/117
s 1
f 55/85/134 56/86/133 60/92/122 59/91/121
s 3
f 56/86/136 53/82/135 57/88/126 60/92/125
s 2
f 62/96/137 61/93/138 49/75/114 50/78/113
s 4
f 50/77/120 51/79/119 63/97/139 62/95/140
s 1
f 51/79/124 52/80/123 64/98/141 63/97/142
s 3
f 52/80/128 49/76/127 61/94/143 64/98/144
s 2
f 66/102/145 65/99/146 61/93/138 62/96/137
s 4
f 62/95/140 63/97/139 67/103/147 66/101/148
s 1
f 63/97/142 64/98/141 68/104/149 67/103/150
s 3
f 64/98/144 61/94/143 65/100/151 68/104/152
s 2
f 70/108/153 69/105/154 65/99/146 66/102/145
s 4
f 66/101/148 67/103/147 71/109/155 70/107/156
s 1
f 67/103/150 68/104/149 72/110/157 71/109/158
s 3
f 68/104/152 65/100/151 69/106/159 72/110/160
s 2
f 74/114/161 73/111/162 69/105/154 70/108/153
s 4
f 70/107/156 71/109/155 75/115/163 74/113/164
s 1
f 71/109/158 72/110/157 76/116/165 75/115/166
s 3
f 72/110/160 69/106/159 73/112/167 76/116/168
s 2
f 78/120/169 77/117/170 73/111/162 74/114/161
s 4
f 74/113/164 75/115/163 79/121/171 78/119/172
s 1
f 75/115/166 76/116/165 80/122/173 79/121/174
s 3
f 76/116/168 73/112/167 77/118/175 80/122/176
s 2
f 82/126/36 81/123/35 77/117/170 78/120/169
s 4
f 78/119/172 79/121/171 83/127/30 82/125/29
s 1
f 79/121/174 80/122/173 84/128/26 83/127/25
s 3
f 80/122/176 77/118/175 81/124/38 84/128/37
g default
v -0.861577 0.079922 12.796117
v -0.632822 0.079922 12.796117
v -0.861577 1.557968 12.737967
v -0.632822 1.557968 12.737967
v -0.861577 3.407799 -2.792823
v -0.632822 3.407799 -2.792823
v -0.861577 1.504955 -6.032246
v -0.632822 1.504955 -6.032246
v -0.632822 3.354574 -1.837141
v -0.861577 3.354574 -1.837141
v -0.861577 0.177490 -4.534380
v -0.632822 0.177490 -4.534379
v -0.632822 2.810917 2.873141
v -0.861577 2.810917 2.873140
v -0.861577 -0.032782 1.799499
v -0.632822 -0.032782 1.799499
v -0.632822 2.191514 7.443864
v -0.861577 2.191514 7.443864
v -0.861577 -0.265918 7.244361
v -0.632822 -0.265918 7.244361
v -0.632822 1.802069 10.502160
v -0.861577 1.802069 10.502160
v -0.861577 -0.372265 10.433548
v -0.632822 -0.372265 10.433548
v -0.632822 1.605195 11.967937
v -0.861577 1.605195 11.967937
v -0.861577 -0.185878 11.977780
v -0.632822 -0.185878 11.977780
vt 0.375000 0.000000
vt 0.625000 0.000000
vt 0.375000 0.250000
vt 0.625000 0.250000
vt 0.375000 0.500000
vt 0.625000 0.500000
vt 0.375000 0.750000
vt 0.625000 0.750000
vt 0.375000 1.000000
vt 0.625000 1.000000
vt 0.875000 0.000000
vt 0.875000 0.250000
vt 0.125000 0.000000
vt 0.125000 0.250000
vt 0.625000 0.450202
vt 0.825202 0.250000
vt 0.174798 0.250000
vt 0.375000 0.450202
vt 0.174798 0.000000
vt 0.375000 0.799798
vt 0.625000 0.799798
vt 0.825202 0.000000
vt 0.625000 0.381533
vt 0.756533 0.250000
vt 0.243467 0.250000
vt 0.375000 0.381533
vt 0.243467 0.000000
vt 0.375000 0.868467
vt 0.625000 0.868467
vt 0.756533 0.000000
vt 0.625000 0.319260
vt 0.694260 0.250000
vt 0.305740 0.250000
vt 0.375000 0.319260
vt 0.305740 0.000000
vt 0.375000 0.930740
vt 0.625000 0.930740
vt 0.694260 0.000000
vt 0.625000 0.279364
vt 0.654364 0.250000
vt 0.345636 0.250000
vt 0.375000 0.279364
vt 0.345636 0.000000
vt 0.375000 0.970636
vt 0.625000 0.970636
vt 0.654364 0.000000
vt 0.625000 0.260143
vt 0.635143 0.250000
vt 0.364857 0.250000
vt 0.375000 0.260143
vt 0.364857 0.000000
vt 0.375000 0.989857
vt 0.625000 0.989857
vt 0.635143 0.000000
vn 0.000000 0.039312 0.999227
vn 0.000000 0.039312 0.999227
vn 0.000000 0.039312 0.999227
vn 0.000000 0.039312 0.999227
vn 0.000000 0.998125 0.061216
vn 0.000000 0.998125 0.061216
vn 0.000000 0.994093 0.108533
vn 0.000000 0.994093 0.108533
vn 0.000000 0.862248 -0.506486
vn 0.000000 0.862248 -0.506486
vn 0.000000 0.862248 -0.506486
vn 0.000000 0.862248 -0.506486
vn 0.000000 -0.982172 0.187984
vn 0.000000 -0.982172 0.187984
vn 0.000000 -0.951089 0.308918
vn 0.000000 -0.951089 0.308918
vn 1.000000 0.000000 0.000000
vn 1.000000 0.000000 0.000000
vn 1.000000 0.000000 0.000000
vn 1.000000 0.000000 0.000000
vn -1.000000 0.000000 0.000000
vn -1.000000 0.000000 0.000000
vn -1.000000 0.000000 0.000000
vn -1.000000 0.000000 0.000000
vn 0.000000 0.994497 0.104766
vn 0.000000 0.994497 0.104766
vn 0.000000 0.998453 0.055608
vn 0.000000 0.998453 0.055608
vn -1.000000 0.000000 0.000000
vn -1.000000 0.000000 0.000000
vn -1.000000 0.000000 0.000000
vn -1.000000 0.000000 0.000000
vn 0.000000 -0.748394 -0.663255
vn 0.000000 -0.748394 -0.663255
vn -0.000000 -0.981264 -0.192668
vn -0.000000 -0.981264 -0.192668
vn 1.000000 0.000000 0.000000
vn 1.000000 0.000000 0.000000
vn 1.000000 0.000000 0.000000
vn 1.000000 0.000000 0.000000
vn 0.000000 0.992239 0.124344
vn 0.000000 0.992239 0.124344
vn -1.000000 -0.000000 -0.000000
vn -1.000000 -0.000000 -0.000000
vn -0.000000 -0.999292 -0.037618
vn -0.000000 -0.999292 -0.037618
vn 1.000000 0.000000 0.000000
vn 1.000000 0.000000 0.000000
vn -0.000000 0.991370 0.131097
vn -0.000000 0.991370 0.131097
vn -1.000000 -0.000000 -0.000000
vn -1.000000 -0.000000 -0.000000
vn 0.000000 -0.999228 -0.039289
vn 0.000000 -0.999228 -0.039289
vn 1.000000 0.000000 0.000000
vn 1.000000 0.000000 0.000000
vn 0.000000 0.991706 0.128525
vn 0.000000 0.991706 0.128525
vn -1.000000 0.000000 0.000000
vn -1.000000 0.000000 0.000000
vn 0.000000 -0.999857 0.016907
vn 0.000000 -0.999857 0.016907
vn 1.000000 0.000000 0.000000
vn 1.000000 0.000000 0.000000
s off
g pCube3
usemtl initialShadingGroup
f 85/129/177 86/130/178 88/132/179 87/131/180
s 1
f 87/131/181 88/132/182 109/175/183 110/178/184
s off
f 89/133/185 90/134/186 92/136/187 91/135/188
s 2
f 111/180/189 112/181/190 86/138/191 85/137/192
s 3
f 86/130/193 112/182/194 109/176/195 88/132/196
s 4
f 111/179/197 85/129/198 87/131/199 110/177/200
s 1
f 94/146/201 93/143/202 90/134/203 89/133/204
s 4
f 91/141/205 95/147/206 94/145/207 89/142/208
s 2
f 91/135/209 92/136/210 96/149/211 95/148/212
s 3
f 93/144/213 96/150/214 92/139/215 90/140/216
s 1
f 98/154/217 97/151/218 93/143/202 94/146/201
s 4
f 95/147/206 99/155/219 98/153/220 94/145/207
s 2
f 95/148/212 96/149/211 100/157/221 99/156/222
s 3
f 97/152/223 100/158/224 96/150/214 93/144/213
s 1
f 102/162/225 101/159/226 97/151/218 98/154/217
s 4
f 99/155/219 103/163/227 102/161/228 98/153/220
s 2
f 99/156/222 100/157/221 104/165/229 103/164/230
s 3
f 101/160/231 104/166/232 100/158/224 97/152/223
s 1
f 106/170/233 105/167/234 101/159/226 102/162/225
s 4
f 103/163/227 107/171/235 106/169/236 102/161/228
s 2
f 103/164/230 104/165/229 108/173/237 107/172/238
s 3
f 105/168/239 108/174/240 104/166/232 101/160/231
s 1
f 110/178/184 109/175/183 105/167/234 106/170/233
s 4
f 107/171/235 111/179/197 110/177/200 106/169/236
s 2
f 107/172/238 108/173/237 112/181/190 111/180/189
s 3
f 109/176/195 112/182/194 108/174/240 105/168/239
